<svg width="246" height="55" viewBox="0 0 246 55" fill="none" xmlns="http://www.w3.org/2000/svg">
<g opacity="0.3" clip-path="url(#clip0_525_75)">
<rect width="246" height="55" fill="white"/>
<path d="M169.245 8.8415L184.626 45.9586H177.985L175.386 39.7126H161.973L159.13 45.9586H148.98L140.357 33.6156V45.9586H133.878V12.1606L145.81 12.1731C149.831 12.1731 156.216 15.0316 156.158 22.5693C156.1 30.7403 149.574 32.7985 147.36 33.2317C149.517 36.1242 151.753 39.2055 153.944 42.1314L169.023 8.83887L169.245 8.8415ZM140.357 27.3262L145.671 27.3274C148.98 27.3274 149.656 24.82 149.656 22.5712C149.656 20.1579 148.619 18.3001 145.729 18.3001L140.357 18.2989V27.3262ZM164.735 33.61H172.868L168.977 24.2452L164.735 33.61Z" fill="black"/>
<path d="M34.7931 45.7556L25.5752 55.0001L17.7678 27.7751L0.0673828 9.21387L25.6337 11.7419L44.7092 24.0189L52.7964 35.934L23.5014 17.0138L14.0388 15.8582L41.1206 43.7333L43.486 36.8727C46.6908 39.9065 51.5028 41.3513 56.0008 39.9068C59.8933 38.7508 63.3305 34.9961 64.0995 31.2412C65.0086 26.8354 63.4121 22.7188 59.8229 19.8307C57.1546 17.5919 53.5653 16.5081 49.8948 17.3749C47.3781 18.0248 45.0121 19.1802 43.1127 21.1308L37.4616 17.5919C42.4254 11.8144 50.2093 9.4302 57.7604 11.4527C64.4031 13.4024 70.3574 19.8307 70.9632 26.4022C71.7206 34.6351 67.9101 41.7121 59.8929 45.1066C56.1643 46.7671 51.0483 47.5611 46.9233 46.046L43.7304 55.0001L34.7931 45.7556ZM27.6847 45.1595L30.7612 41.3998L24.8647 35.2122L27.6847 45.1595Z" fill="black"/>
<path d="M20.8916 20.2493C20.8916 19.304 21.6949 18.5381 22.6856 18.5381C23.6765 18.5381 24.4802 19.3046 24.4802 20.2496C24.4802 21.1949 23.6762 21.9614 22.6856 21.9614C21.6953 21.9607 20.8913 21.1949 20.8916 20.2493Z" fill="black"/>
<path d="M192.375 50.1466L171.004 0L177.787 0.0065646L192.411 34.33L201.99 12.1605H208.864L192.375 50.1466Z" fill="black"/>
<path d="M218.433 45.9588H212.021V12.1602H218.433V45.9588Z" fill="black"/>
<path d="M245.932 18.2984H237.006V45.9582H230.632V18.2996L221.822 18.2984V12.1602H245.932V18.2984Z" fill="black"/>
<path d="M110.758 28.2755C110.758 33.6028 110.001 39.7413 116.969 39.7413C123.763 39.7407 123.098 33.6781 123.098 28.2658L123.099 12.1603H129.496V33.6338C129.496 38.1443 126.14 45.9586 116.969 45.9586C107.822 45.9583 104.36 38.1446 104.36 33.6341L104.361 12.1604L110.758 12.1592C110.758 12.1592 110.758 27.4099 110.758 28.2755Z" fill="black"/>
<path d="M85.3085 39.806C84.0272 40.0342 82.5582 40.0258 81.4279 40.028L81.4282 18.1795C82.5701 18.1795 84.0149 18.1829 85.32 18.4092C92.7548 19.6946 94.6657 25.8022 94.6773 29.3652C94.6892 32.8964 92.7429 38.5163 85.3085 39.806ZM81.1487 12.1602C78.4685 12.1602 76.1609 12.1605 74.7627 12.1605V45.9581C76.8371 45.9581 78.3632 45.9584 80.6823 45.9584C90.9136 45.9581 100.854 40.7987 100.854 29.0374C100.854 19.0086 94.3162 12.1605 81.1487 12.1602Z" fill="black"/>
</g>
<defs>
<clipPath id="clip0_525_75">
<rect width="246" height="55" fill="white"/>
</clipPath>
</defs>
</svg>
