<svg width="216" height="39" viewBox="0 0 216 39" fill="none" xmlns="http://www.w3.org/2000/svg">
<g opacity="0.3">
<rect width="216" height="39" fill="white"/>
<path d="M66.5677 33.1263C61.9055 34.3725 58.4332 34.4542 55.8973 34.4542C48.5432 34.4542 40.0381 30.5521 40.0381 19.6222C40.0381 8.73305 47.3532 4.54492 57.4774 4.54492C59.2915 4.54492 63.1344 4.74923 65.8264 5.83201V12.2266C63.5246 10.8169 60.2474 10.2653 58.4918 10.2653C52.5226 10.2653 47.6263 12.8803 47.6263 19.6222C47.6263 25.3017 51.4692 28.7339 56.8337 28.7339C57.8285 28.7339 58.7844 28.5704 59.4476 28.2436V22.5232H55.1365V17.048H66.5677V33.1263Z" fill="black"/>
<path d="M72.8096 5.03516H92.2776V10.5104H80.1832V16.4759H91.6144V21.9511H80.1832V28.4886H92.7068V33.9638H72.8096V5.03516Z" fill="black"/>
<path d="M105.601 21.7059H107.864C110.4 21.7059 113.287 21.9919 113.287 25.1381C113.287 28.08 110.478 28.4886 107.786 28.4886H105.601V21.7059ZM98.2471 33.9638H109.873C114.828 33.9638 120.641 32.5133 120.641 25.5876C120.641 22.0737 118.729 19.9898 115.062 19.2135V19.1318C118.144 18.049 119.919 16.0264 119.919 12.3695C119.919 7.40502 116.096 5.03516 110.946 5.03516H98.2471V33.9638ZM105.601 10.5104H107.747C110.205 10.5104 112.565 10.7555 112.565 13.4114C112.565 15.863 110.068 16.4759 107.669 16.4759H105.601V10.5104Z" fill="black"/>
<path d="M125.967 5.03516H145.435V10.5104H133.321V16.4759H144.752V21.9511H133.321V28.4886H145.864V33.9638H125.967V5.03516Z" fill="black"/>
<path d="M158.757 10.5104H160.708C163.498 10.5104 166.073 11.0007 166.073 13.6974C166.073 16.9662 163.069 17.0479 160.708 17.0479H158.757V10.5104ZM151.403 33.9638H158.757V22.5231H160.299C163.03 22.5231 163.985 23.7693 165.487 28.7338L167.067 33.9638H174.734L172.042 26.0779C170.676 22.564 170.501 20.378 168.14 19.7038V19.6221C171.691 18.7436 173.427 16.1899 173.427 12.3286C173.427 7.36417 169.447 5.03516 164.532 5.03516H151.403V33.9638Z" fill="black"/>
<path d="M179.357 5.03516H186.731V33.9638H179.357V5.03516Z" fill="black"/>
<path d="M197.518 10.7555H190.71V5.03516H211.68V10.7555H204.872V33.9638H197.518V10.7555Z" fill="black"/>
<path d="M4.32031 5.03516H31.9618V33.9843H4.32031V5.03516Z" fill="#8D8D8D"/>
</g>
</svg>
