<svg width="116" height="49" viewBox="0 0 116 49" fill="none" xmlns="http://www.w3.org/2000/svg">
<g opacity="0.3" clip-path="url(#clip0_525_96)">
<rect width="116" height="49" fill="white"/>
<path fill-rule="evenodd" clip-rule="evenodd" d="M105.937 5.01256V8.46203H113.337V12.5094H105.937V16.9238H115.789V20.9775H100.832V0.958262H114.786V5.01193L105.937 5.01256ZM95.0612 0.958262V20.9775H89.9516V12.5094H80.1834V20.9775H75.0738V0.958262H80.1834V8.4614H89.9516V0.958262H95.0612ZM59.0407 0.463867C66.0376 0.463867 71.7483 5.18321 71.7483 10.971C71.7483 16.7588 66.0376 21.4782 59.0407 21.4782C52.0425 21.4782 46.3318 16.7588 46.3318 10.971C46.3318 5.18321 52.0432 0.463867 59.0407 0.463867ZM59.0407 4.27347C62.7906 4.27347 65.8566 7.28376 65.8566 10.971C65.8566 14.6589 62.7906 17.6629 59.0407 17.6629C55.2889 17.6629 52.2291 14.6589 52.2291 10.971C52.2297 7.28376 55.2896 4.27347 59.0407 4.27347ZM26.2474 0.958262H35.9736C41.7869 0.958262 43.7464 4.18187 43.7464 7.18589C43.7526 10.1899 42.4059 12.0822 39.7006 13.108L46.734 20.9775H39.6895C37.0504 17.6196 34.4113 14.2555 31.7728 10.8976H34.9704C35.7417 10.897 36.4814 10.5855 37.0269 10.0316C37.5724 9.47768 37.8792 8.72659 37.8801 7.94317C37.8784 7.15994 37.5714 6.40927 37.026 5.85544C36.4807 5.30161 35.7416 4.98974 34.9704 4.98809H31.3514V20.9775H26.248L26.2474 0.958262ZM12.9201 0.463867C16.0998 0.463867 19.0095 1.43446 21.2403 3.03435V6.57542C18.2824 4.96926 15.5117 4.20007 12.9201 4.27347C9.16902 4.27347 6.10918 7.28376 6.10918 10.971C6.10918 14.6589 9.16902 17.6629 12.9201 17.6629C14.1526 17.6629 15.3128 17.3392 16.3105 16.7777V11.1304H21.5826V18.6461C19.3104 20.4047 16.2623 21.4788 12.9201 21.4788C5.92262 21.4788 0.211914 16.7595 0.211914 10.9717C0.211296 5.18321 5.92262 0.463867 12.9201 0.463867Z" fill="black"/>
<path fill-rule="evenodd" clip-rule="evenodd" d="M45.611 27.9192C49.6506 29.4263 53.8348 30.9841 58.7758 30.9841C63.7118 30.9841 67.8954 29.4269 71.935 27.9192C82.1666 24.1027 85.4018 24.1215 95.6927 27.7843C99.7385 29.2192 103.923 30.7093 108.876 30.7093C110.337 30.7093 111.732 30.5744 113.066 30.3429C112.485 31.1692 111.858 31.962 111.19 32.7176C110.421 32.7857 109.649 32.8201 108.876 32.8205C103.592 32.8205 99.2282 31.2702 95.0138 29.7682C91.317 28.4557 87.7407 27.1864 83.8321 27.1375H83.8259H83.7839H83.7901C79.9074 27.1927 76.336 28.5171 72.651 29.8968C68.4378 31.4653 64.0732 33.0966 58.7764 33.0966C53.4747 33.0966 49.1101 31.4653 44.9024 29.8968C41.2112 28.5171 37.6405 27.1921 33.7572 27.1375H33.7634H33.7152C29.8077 27.1864 26.2308 28.4563 22.5341 29.7682C18.3258 31.2708 13.9618 32.8205 8.67123 32.8205C7.83027 32.8203 6.98978 32.7799 6.15257 32.6994C5.47832 31.9395 4.84796 31.1405 4.26465 30.3065C5.71882 30.5735 7.19349 30.7085 8.67123 30.7099C13.6252 30.7099 17.8149 29.2198 21.8545 27.785C32.1448 24.1215 35.3794 24.1033 45.611 27.9192ZM45.611 35.6357C49.6506 37.144 53.8348 38.7068 58.7758 38.7068C63.7118 38.7068 67.8954 37.1446 71.935 35.6357C82.1666 31.8198 85.4018 31.8443 95.6927 35.5083C98.6562 36.5573 101.698 37.6384 105.064 38.1453C104.241 38.7267 103.401 39.2845 102.546 39.818C99.8893 39.2263 97.4243 38.3461 95.0138 37.4922C91.317 36.1734 87.7407 34.9029 83.8321 34.8602H83.8259H83.7839H83.7901C79.9074 34.9092 76.336 36.2399 72.651 37.6139C68.4378 39.1899 64.0732 40.8137 58.7764 40.8137C53.4747 40.8137 49.1101 39.1899 44.9024 37.6139C41.2112 36.2405 37.6405 34.9092 33.7572 34.8602H33.7634H33.7152C29.8077 34.9029 26.2308 36.174 22.5341 37.4922C20.0815 38.3649 17.5746 39.2564 14.8632 39.8487C14.0011 39.3128 13.155 38.7508 12.326 38.1635C15.7522 37.6748 18.8423 36.5755 21.8545 35.5083C32.1448 31.8443 35.3794 31.8198 45.611 35.6357ZM45.611 43.3597C49.6506 44.8667 53.8348 46.4246 58.7758 46.4246C63.7118 46.4246 67.8954 44.8673 71.935 43.3597C82.1666 39.5438 85.4018 39.562 95.6927 43.2248C95.7829 43.2555 95.8675 43.2863 95.9571 43.3164C95.0168 43.7449 94.067 44.1518 93.1086 44.5367C90.0728 43.4927 87.0674 42.6143 83.8321 42.5773H83.8259H83.7839H83.7901C79.9074 42.6325 76.336 43.9632 72.651 45.3366C68.4378 46.9051 64.0732 48.5364 58.7764 48.5364C53.4747 48.5364 49.1101 46.9051 44.9024 45.3366C41.2112 43.9632 37.6405 42.6319 33.7572 42.5773H33.7634H33.7152C30.4453 42.6143 27.4089 43.5109 24.3435 44.5737C23.3822 44.1898 22.43 43.7829 21.4876 43.3534L21.8545 43.2248C32.1448 39.562 35.3794 39.5432 45.611 43.3597Z" fill="black"/>
</g>
<defs>
<clipPath id="clip0_525_96">
<rect width="116" height="49" fill="white"/>
</clipPath>
</defs>
</svg>
