<svg width="226" height="33" viewBox="0 0 226 33" fill="none" xmlns="http://www.w3.org/2000/svg">
<g opacity="0.3" clip-path="url(#clip0_525_100)">
<rect width="226" height="33" fill="white"/>
<path fill-rule="evenodd" clip-rule="evenodd" d="M0.249023 0.248859C0.249023 0.739603 0.249023 32.2423 0.249023 32.7312C0.775759 32.7312 225.205 32.7312 225.73 32.7312C225.73 32.2423 225.726 0.737817 225.726 0.24707C225.201 0.24707 0.775759 0.248859 0.249023 0.248859Z" fill="white"/>
<path fill-rule="evenodd" clip-rule="evenodd" d="M177.442 12.7075C175.616 12.7075 174.07 13.8125 173.56 15.2507L181.341 15.2454C180.854 13.7785 179.292 12.7075 177.442 12.7075ZM169.862 16.9701C169.862 21.1003 173.228 24.4531 177.382 24.4531C180.584 24.4531 183.317 22.4776 184.403 19.6728L180.68 19.671C179.925 20.597 178.72 21.2006 177.361 21.2006C175.39 21.2006 173.742 19.9701 173.324 18.2794L184.854 18.2758C184.926 17.8496 184.905 17.4179 184.905 16.9701C184.905 12.8364 181.537 9.48537 177.382 9.48537C173.228 9.48537 169.862 12.8364 169.862 16.9701ZM151.113 16.9612C151.113 12.8346 147.703 9.49074 143.499 9.49074C139.296 9.49074 135.888 12.8346 135.888 16.9612C135.888 21.0878 139.296 24.4334 143.499 24.4334C147.703 24.4334 151.113 21.0878 151.113 16.9612ZM135.135 12.6376L135.133 9.46208C133.395 9.46208 131.931 10.1176 131.291 11.0257V9.78806H127.997V24.163H131.578L131.593 15.1881C131.652 13.8125 133.202 12.7021 135.135 12.6376ZM124.227 9.78806H121.044L121.055 11.2227C119.966 10.114 118.425 9.46567 116.499 9.46567C112.484 9.46567 109.082 12.9779 109.082 16.8C109.082 20.8495 112.402 24.1325 116.499 24.1325C118.206 24.1325 119.852 23.2173 121.083 21.9224C121.083 21.9224 121.076 22.0979 121.076 22.191C121.076 24.6501 118.986 26.6454 116.412 26.6454C115.017 26.6454 113.766 26.0597 112.91 25.1319L109.259 25.1481C110.22 27.7684 113.109 29.6704 116.518 29.6704C120.405 29.6704 124.21 26.2119 124.215 23.2334L124.221 23.0919L124.227 9.78806ZM106.846 19.4955C106.846 17.2173 105.1 15.9618 102.655 15.5463L100.333 15.0824C99.3379 14.9319 98.1145 14.649 98.1145 13.6728C98.1145 12.9636 99.1038 12.3869 100.325 12.3869C101.547 12.3869 102.719 13.286 102.719 13.997L106.554 14.0042C106.136 11.4645 103.554 9.54806 100.429 9.54806C97.0138 9.54806 94.584 11.5719 94.6728 14.4519C94.7389 16.5134 97.0705 17.7188 99.64 18.2328L100.486 18.3904C102.296 18.6251 103.303 18.9851 103.352 19.8269C103.414 20.8585 102.417 21.5158 100.946 21.514C99.3757 21.5122 98.1164 20.5469 98.1164 19.4185L94.4557 19.4095C94.5029 22.2394 97.5538 24.5194 100.958 24.5194C104.388 24.5194 106.846 22.3576 106.846 19.4955ZM92.092 24.1612L92.0693 14.6167C92.0032 11.7636 89.4526 9.47104 86.3167 9.47104C84.6761 9.47104 83.196 10.0997 82.1463 11.1063L82.1501 9.78268L78.8858 9.78627L78.8801 24.1612H82.3898L82.4049 15.7128C82.4049 14.1958 83.8001 12.9654 85.5238 12.9654C87.2437 12.9654 88.6389 14.1958 88.6389 15.7128L88.6351 24.1612H92.092ZM75.2742 24.1612L75.2685 9.78806L71.8513 9.78627L71.8438 11.2997C70.5184 10.1875 69.4725 9.51582 67.5921 9.51582C63.4028 9.51582 59.8912 12.8758 59.8912 16.9934C59.8912 21.1075 63.4028 24.4603 67.5921 24.4603C69.4593 24.4603 70.5128 23.8495 71.8325 22.7516L71.8287 24.1522L75.2742 24.1612ZM157.57 0.0053735H225.996L226 33H0V0.00716203L43.9721 0V24.274H47.4723V15.6752C47.629 14.2263 48.8222 12.9528 50.4892 12.9528C52.1544 12.9528 53.5062 14.1707 53.5062 15.6752L53.493 24.274H56.895L56.9026 14.2836C56.5156 11.4949 54.4388 9.48895 51.437 9.48895C49.8794 9.48895 48.4729 10.0406 47.4685 10.9684V0.00895056L154.073 0.0053735V24.24H157.572V15.6376C157.728 14.1904 158.925 12.917 160.588 12.917C162.255 12.917 163.605 14.1349 163.605 15.6376V24.24H167L167.002 14.2478C166.615 11.4591 164.536 9.45313 161.534 9.45313C159.979 9.45313 158.572 10.0048 157.57 10.9325V0.0053735ZM143.472 12.8221C141.173 12.8221 139.309 14.674 139.309 16.9612C139.309 19.2484 141.173 21.1021 143.472 21.1021C145.77 21.1021 147.633 19.2484 147.633 16.9612C147.633 14.674 145.77 12.8221 143.472 12.8221ZM67.6356 12.84C65.3134 12.84 63.4311 14.6884 63.4311 16.9684C63.4311 19.2501 65.3134 21.0967 67.6356 21.0967C69.9558 21.0967 71.8362 19.2501 71.8362 16.9684C71.8362 14.6884 69.9558 12.84 67.6356 12.84ZM120.894 16.9021C120.894 19.1534 119.031 20.9767 116.733 20.9767C114.432 20.9767 112.569 19.1534 112.569 16.9021C112.569 14.6525 114.432 12.8293 116.733 12.8293C119.031 12.8293 120.894 14.6525 120.894 16.9021Z" fill="black"/>
</g>
<defs>
<clipPath id="clip0_525_100">
<rect width="226" height="33" fill="white"/>
</clipPath>
</defs>
</svg>
