<svg width="149" height="75" viewBox="0 0 149 75" fill="none" xmlns="http://www.w3.org/2000/svg">
<g opacity="0.5" clip-path="url(#clip0_525_47)">
<rect width="149" height="75" fill="white"/>
<path d="M50.8535 25.4897C58.6159 26.8271 66.5221 27.5238 74.5721 27.5238C82.622 27.5238 90.5282 26.8271 98.1468 25.4883L98.2906 26.1003C90.6719 27.7517 82.622 28.6204 74.5721 28.6204C66.3784 28.6204 58.4722 27.7517 50.8535 26.1032V25.4897Z" fill="black"/>
<path d="M108.209 29.1682C97.2841 31.5019 86.0717 32.7318 74.5718 32.7318C62.9281 32.7318 51.7157 31.5019 40.9346 29.1682L41.0783 28.5576C51.8595 30.5802 63.0719 31.6366 74.5718 31.6366C85.9279 31.6366 97.1403 30.5802 108.065 28.5576L108.209 29.1682Z" fill="black"/>
<path d="M88.6593 23.1501C84.0594 24.0417 79.3156 24.509 74.5719 24.509C69.6845 24.509 64.9408 24.0417 60.3408 23.1501L60.4846 22.5352C65.0845 23.1143 69.6845 23.4124 74.5719 23.4124C79.3156 23.4124 83.9156 23.1143 88.6593 22.5352V23.1501Z" fill="black"/>
<path d="M68.2471 7.71913C68.2471 4.18139 70.5471 1.98535 73.2783 1.98535C76.0095 1.98535 78.3095 4.14844 78.3095 7.08553H78.022C78.022 4.69025 76.1532 2.90991 73.8533 2.90991C71.5533 2.90991 69.6846 4.67306 69.6846 7.7392V19.7815H68.2471V7.71913Z" fill="black"/>
<path d="M68.2475 3.80168C69.2537 2.14463 71.1224 1.05377 73.2787 1.05377C76.5849 1.05377 79.3161 3.4376 79.3161 7.71929V19.7817H80.7536V7.62037C80.7536 2.86563 77.5911 0.0976562 73.9974 0.0976562C71.4099 0.0976562 69.1099 1.55406 67.96 3.67267L68.2475 3.80168Z" fill="black"/>
<path fill-rule="evenodd" clip-rule="evenodd" d="M74.86 72.2127L77.3037 69.0176V72.2127H74.86ZM74.4287 72.8979H77.3037V74.7872H78.4537V72.8979H79.4599V72.2127H78.4537V68.0156H77.7349L74.4287 72.4106V72.8979Z" fill="black"/>
<path fill-rule="evenodd" clip-rule="evenodd" d="M85.7841 70.9069C85.2092 70.57 84.0592 70.2934 84.0592 69.4706C84.0592 68.728 84.6342 68.3711 85.4967 68.3711C86.2154 68.3711 86.6466 68.7582 86.6466 69.4806C86.6466 70.1443 86.3591 70.57 85.7841 70.9069ZM84.6342 71.4903C85.4967 71.8759 86.7904 72.164 86.7904 73.2333C86.7904 74.0346 86.0716 74.6009 85.2092 74.6009C84.3467 74.6009 83.7717 74.0346 83.7717 73.2333C83.7717 72.4708 84.0592 71.9461 84.6342 71.4903ZM86.0717 70.9857C86.6466 70.7177 87.5091 70.2833 87.5091 69.5308C87.5091 68.5804 86.3591 68.1045 85.3529 68.1045C84.3467 68.1045 83.0529 68.6492 83.0529 69.7487C83.0529 70.6288 83.6279 71.0259 84.4904 71.3914C83.6279 71.8071 82.9092 72.2529 82.9092 73.1932C82.9092 74.36 84.0592 74.8661 85.0654 74.8661C86.5029 74.8661 87.7966 74.2411 87.7966 72.9653C87.7966 71.916 86.9341 71.4014 86.0717 70.9857Z" fill="black"/>
<path d="M63.7912 74.7872V74.5894C63.2162 74.5894 63.0724 74.5292 63.0724 74.1035V68.1045H62.7849C62.4974 68.3324 61.9224 68.9273 60.7725 69.1251V69.333C61.4912 69.3817 61.7787 69.3817 61.7787 69.5408C61.9224 69.6498 61.9224 69.8375 61.9224 70.1543V74.1035C61.9224 74.5292 61.635 74.5894 61.06 74.5894V74.7872H63.7912Z" fill="black"/>
<path d="M71.5537 68.1932H69.2537C68.9662 68.1932 68.6787 68.1932 68.3912 68.1746C68.1037 68.1645 68.1037 68.1445 68.1037 67.8965H67.8162L67.2412 69.7585H67.385L67.5287 69.4833C67.6725 69.2668 67.8162 69.1292 67.96 69.1292H70.8349L68.6787 73.3908C68.3912 74.1635 68.1037 74.7368 68.1037 74.777C68.1037 74.9748 68.3912 74.9648 68.535 74.9648C68.9662 74.9648 69.1099 74.8071 69.2537 74.4989L71.5537 68.4612V68.1932Z" fill="black"/>
<path d="M1.69141 61.8492H65.8033V61.2285H1.69141V61.8492Z" fill="black"/>
<path d="M72.8477 61.8492H148.891V61.2285H72.8477V61.8492Z" fill="black"/>
<path fill-rule="evenodd" clip-rule="evenodd" d="M65.2282 52.8301C65.2282 49.9632 63.2158 48.0596 60.3408 48.0596C57.3221 48.0596 55.3096 50.0549 55.3096 52.8301C55.3096 55.6009 57.3221 57.6034 60.3408 57.6034C63.072 57.6034 65.2282 55.565 65.2282 52.8301ZM63.2157 52.8301C63.2157 55.178 62.2095 57.0917 60.3408 57.0917C58.3283 57.0917 57.4658 55.1952 57.4658 52.8301C57.4658 50.4778 58.472 48.5713 60.3408 48.5713C62.3533 48.5713 63.2157 50.4592 63.2157 52.8301Z" fill="black"/>
<path fill-rule="evenodd" clip-rule="evenodd" d="M103.753 50.1937H104.76C107.347 50.1937 109.647 50.413 109.647 53.5035C109.647 55.6752 108.353 56.8649 105.766 56.8649C104.616 56.8649 103.753 56.6757 103.753 55.582V50.1937ZM103.753 43.4149C104.041 43.4092 104.328 43.4149 104.616 43.4149C108.066 43.4149 108.785 44.7853 108.785 46.4395C108.785 48.7517 107.06 49.6031 104.903 49.6031H103.753V43.4149ZM99.7285 57.3709C101.597 57.3709 103.322 57.4555 105.191 57.4555C106.628 57.4555 108.497 57.3494 109.935 56.6571C111.516 55.8156 112.091 54.6861 112.091 53.3974C112.091 51.3175 110.51 49.8238 108.353 49.5716C110.078 49.0885 111.085 47.9747 111.085 46.2503C111.085 45.1365 110.366 43.9812 109.216 43.4751C107.922 42.8459 106.485 42.8029 104.903 42.8244C103.178 42.8459 101.453 42.8459 99.7285 42.8659V43.3074C100.735 43.4551 101.453 43.2444 101.453 44.3165V56.0264C101.453 56.8878 100.591 56.8878 99.7285 56.9294V57.3709Z" fill="black"/>
<path fill-rule="evenodd" clip-rule="evenodd" d="M124.74 52.8301C124.74 49.9632 122.728 48.0596 119.709 48.0596C116.834 48.0596 114.678 50.0549 114.678 52.8301C114.678 55.6009 116.834 57.6034 119.709 57.6034C122.44 57.6034 124.74 55.565 124.74 52.8301ZM122.584 52.8301C122.584 55.178 121.578 57.0917 119.709 57.0917C117.84 57.0917 116.834 55.1952 116.834 52.8301C116.834 50.4778 117.84 48.5713 119.709 48.5713C121.721 48.5713 122.584 50.4592 122.584 52.8301Z" fill="black"/>
<path d="M0.110352 43.3077C0.685348 43.3077 1.26034 43.4597 1.69159 43.8524C1.97909 44.238 2.41033 45.0207 2.84158 46.1875L7.58529 57.6651H8.30403L12.7602 46.0198C13.3352 44.6508 13.9102 43.3077 15.4915 43.3077V42.8662H10.604V43.3077C11.0353 43.3077 11.754 43.2647 12.1852 43.9613C12.329 44.3412 12.329 45.1382 11.754 46.629L8.87903 54.5745H8.73528L5.14156 45.4521C5.14156 45.3274 4.85406 44.5663 4.85406 44.1506C4.99781 43.4955 5.8603 43.3077 6.57904 43.3077V42.8662H0.110352V43.3077Z" fill="black"/>
<path d="M25.698 42.6768C24.6918 42.9706 23.398 43.3921 22.248 43.6444V43.8966C22.823 43.9181 23.1105 44.0429 23.2543 44.212C23.6855 44.5059 23.6855 45.0104 23.6855 45.5365V55.8157C23.6855 56.908 23.398 56.908 22.248 56.971V57.371H26.9918V56.971C25.9855 56.908 25.698 56.908 25.698 55.8157V42.6768Z" fill="black"/>
<path d="M32.3101 42.6768C31.3039 42.9706 30.0101 43.3921 29.0039 43.6444V43.8966C29.4352 43.9181 29.7227 44.0429 30.0101 44.212C30.2976 44.5059 30.2976 45.0104 30.2976 45.5365V55.8157C30.2976 56.908 30.0101 56.908 29.0039 56.971V57.371H33.6039V56.971C32.5976 56.908 32.3101 56.908 32.3101 55.8157V42.6768Z" fill="black"/>
<path d="M51.5728 57.3704V56.9705C50.4228 56.9074 50.1353 56.9074 50.1353 55.8151V51.7571C50.1353 50.0412 50.9978 49.1081 51.5728 49.1081C52.2916 49.1081 52.4353 49.938 53.154 49.938C53.729 49.938 54.1603 49.5668 54.1603 48.9905C54.1603 48.3039 53.4415 47.9111 52.7228 47.9111C51.2853 47.9111 50.4228 49.1554 49.9916 49.799V47.9957C49.1291 48.3311 47.9791 48.7727 46.9729 49.0679V49.2772C47.8353 49.6342 48.1228 49.6772 48.1228 50.4971V55.8151C48.1228 56.9074 47.6916 56.9074 46.8291 56.9705V57.3704H51.5728Z" fill="black"/>
<path d="M135.666 54.8426C135.091 55.8833 134.084 56.8093 132.647 56.8093C130.203 56.8093 129.484 54.6405 129.484 52.7068C129.484 51.0239 130.059 48.5713 132.216 48.5713C133.078 48.5713 133.941 49.1576 133.941 50.0334C133.941 50.5695 134.372 51.0855 134.803 51.0855C135.378 51.0855 135.809 50.7215 135.809 50.2241C135.666 48.8523 133.941 48.0596 132.216 48.0596C129.197 48.0596 127.328 50.1309 127.328 52.9204C127.328 55.4848 129.197 57.6034 131.928 57.6034C133.797 57.6034 135.234 56.5771 135.953 54.9472L135.666 54.8426Z" fill="black"/>
<path d="M142.278 57.371V56.971C141.272 56.908 140.984 56.908 140.984 55.8157V50.2453C141.559 49.6376 141.99 48.9194 143.428 48.9194C144.722 48.9194 145.297 49.9716 145.297 51.3692V55.8157C145.297 56.908 145.009 56.908 144.147 56.971V57.371H148.747V56.971C147.74 56.908 147.453 56.908 147.453 55.8157V51.5899C147.453 48.594 145.297 48.0594 144.147 48.0594C142.709 48.0594 141.847 48.7173 140.984 49.5515V42.6768C139.978 43.0337 138.684 43.3706 137.678 43.749V43.9181C138.253 44.0429 138.828 44.2321 138.828 44.8843V55.8157C138.828 56.908 138.54 56.908 137.534 56.971V57.371H142.278Z" fill="black"/>
<path d="M20.0914 57.3708V56.9709C19.0851 56.9078 18.7976 56.9078 18.7976 55.8155V47.9531C17.7914 48.31 16.4976 48.6884 15.4914 49.0683V49.2776C15.7789 49.3192 15.9227 49.3407 16.2101 49.4869C16.6414 49.7406 16.6414 50.3283 16.6414 50.7698V55.8155C16.6414 56.9078 16.3539 56.9078 15.3477 56.9709V57.3708H20.0914Z" fill="black"/>
<path d="M16.498 45.217C16.498 44.559 16.9293 44.0244 17.648 44.0244C18.223 44.0244 18.798 44.559 18.798 45.217C18.798 45.8735 18.223 46.4082 17.648 46.4082C16.9293 46.4082 16.498 45.8735 16.498 45.217Z" fill="black"/>
<path d="M38.3471 50.9895H42.6595C42.6595 49.4027 41.6533 48.5756 40.647 48.5756C39.6408 48.5756 38.6346 49.5088 38.3471 50.9895ZM38.2033 51.6231C38.0596 51.9628 38.0595 52.3255 38.0595 52.7068C38.0595 54.9143 38.922 56.8093 41.3658 56.8093C42.372 56.8093 43.6658 56.0682 44.3845 54.8426L44.672 54.9472C44.2407 56.1212 42.947 57.6034 40.7908 57.6034C37.9158 57.6034 35.9033 55.7586 35.9033 52.9204C35.9033 50.2226 37.7721 48.0596 40.647 48.0596C42.8033 48.0596 44.5282 49.2622 44.672 51.6231H38.2033Z" fill="black"/>
<path d="M70.8349 59.3046L71.5537 57.6031L67.9599 49.7823C67.6725 49.1974 67.385 48.6885 66.5225 48.6885V48.29H71.4099V48.6885C70.8349 48.6885 70.4037 48.6957 70.2599 49.1C70.2599 49.2677 70.1162 49.5543 70.4037 49.9084L72.7037 55.2251L74.7161 50.413C74.8599 49.9643 75.0036 49.3981 74.8599 49.0885C74.5724 48.6599 73.9974 48.6885 73.5662 48.6885V48.29H77.3036V48.6885C76.2974 48.6885 75.8661 49.3064 75.5786 49.9715L71.4099 59.683C70.9787 60.6578 70.4037 61.8905 69.1099 61.8905C68.6787 61.8905 68.2474 61.4906 68.2474 61.0491C68.2474 60.546 68.5349 60.2091 69.1099 60.1876C69.3974 60.2091 69.5412 60.2922 69.8287 60.3137C70.4037 60.361 70.6912 59.7361 70.8349 59.3046Z" fill="black"/>
<path d="M87.0781 49.6601C88.0843 48.8158 88.3718 48.1435 88.3718 47.4038C88.5156 46.2542 87.9406 45.8485 87.2218 45.8485C86.5031 45.8485 86.0719 46.5911 86.0719 47.0254C86.0719 47.6876 86.3593 48.1277 86.6468 48.8831C86.7906 49.0838 86.9343 49.3505 87.0781 49.6601ZM88.9468 55.6217C87.9406 54.3574 86.7906 52.5972 85.9281 51.2827C85.2094 52.0912 84.6344 53.0545 84.6344 54.1911C84.6344 55.6891 85.6406 56.6022 86.7906 56.6022C87.6531 56.6022 88.3718 56.1521 88.9468 55.6217ZM90.6718 54.4133C90.5281 54.5294 90.5281 54.6484 90.3843 54.7674C90.5281 54.9021 90.6718 55.0254 90.6718 55.1372C91.3906 55.8912 92.1093 56.4345 93.2593 56.4345C93.8343 56.4345 94.2655 56.2453 94.8405 55.6102L94.9843 55.8339C94.553 56.6237 93.5468 57.6028 92.3968 57.6028C91.2468 57.6028 90.3843 57.091 89.5218 56.2955L89.3781 56.112C88.5156 56.9577 87.5093 57.6028 86.2156 57.6028C83.6281 57.6028 82.7656 55.8797 82.7656 54.5409C82.7656 52.7462 84.3469 51.611 85.6406 50.7394C85.3531 50.2979 85.2094 49.941 85.0656 49.7203C84.7781 49.23 84.4906 48.3915 84.4906 47.8439C84.4906 46.4076 85.4968 45.377 87.2218 45.377C88.8031 45.377 89.8093 46.2513 89.6656 47.4984C89.5218 48.5807 88.3718 49.4221 87.3656 50.1718C88.0843 51.4203 89.0906 53.0975 90.0968 54.2901C90.0968 54.1955 90.0968 54.1152 90.2406 54.055C90.5281 53.3598 91.1031 52.3334 91.1031 51.3171C91.1031 50.6649 90.6718 50.4757 90.0968 50.4757V50.1331H93.6905V50.4757C92.3968 50.4943 91.9655 51.502 91.5343 52.4495C91.3905 53.0286 90.8156 53.9317 90.6718 54.4133Z" fill="black"/>
</g>
<defs>
<clipPath id="clip0_525_47">
<rect width="149" height="75" fill="white"/>
</clipPath>
</defs>
</svg>
