<svg width="82" height="73" viewBox="0 0 82 73" fill="none" xmlns="http://www.w3.org/2000/svg">
<path d="M20.8758 37.2448L40.7516 25.3287M20.8758 37.2448L40.7516 48.6643M20.8758 37.2448V60.5804M40.7516 25.3287L61.1242 37.2448M40.7516 25.3287V1M61.1242 37.2448L40.7516 48.6643M61.1242 37.2448V60.5804M40.7516 48.6643V72M20.8758 60.5804L40.7516 72M20.8758 60.5804L1 72M40.7516 72L61.1242 60.5804M61.1242 60.5804L81 72M40.7516 1L37.7702 4.97203M40.7516 1L43.7329 4.97203M81 72L79.0124 68.028M81 72H76.0311M1 72H5.96894M1 72L2.98758 68.028" stroke="white" stroke-width="2" stroke-linecap="round" stroke-linejoin="round"/>
</svg>
