<svg width="85" height="76" viewBox="0 0 85 76" fill="none" xmlns="http://www.w3.org/2000/svg">
<path d="M21.8758 38.2448L41.7516 26.3287M21.8758 38.2448L41.7516 49.6643M21.8758 38.2448V61.5804M41.7516 26.3287L62.1242 38.2448M41.7516 26.3287V2M62.1242 38.2448L41.7516 49.6643M62.1242 38.2448V61.5804M41.7516 49.6643V73M21.8758 61.5804L41.7516 73M21.8758 61.5804L2 73M41.7516 73L62.1242 61.5804M62.1242 61.5804L82 73M41.7516 2L38.7702 5.97203M41.7516 2L44.7329 5.97203M82 73L80.0124 69.028M82 73H77.0311M2 73H6.96894M2 73L3.98758 69.028" stroke="white" stroke-width="2" stroke-linecap="round" stroke-linejoin="round"/>
</svg>
