<svg width="25" height="22" viewBox="0 0 25 22" fill="none" xmlns="http://www.w3.org/2000/svg">
<path d="M11.9997 12.8333C14.0218 12.8333 15.6663 11.1888 15.6663 9.16667C15.6663 7.1445 14.0218 5.5 11.9997 5.5C9.97751 5.5 8.33301 7.1445 8.33301 9.16667C8.33301 11.1888 9.97751 12.8333 11.9997 12.8333ZM11.9997 7.33333C13.0108 7.33333 13.833 8.15558 13.833 9.16667C13.833 10.1777 13.0108 11 11.9997 11C10.9886 11 10.1663 10.1777 10.1663 9.16667C10.1663 8.15558 10.9886 7.33333 11.9997 7.33333Z" fill="#002E3C"/>
<path d="M11.4438 20.4867C11.606 20.6035 11.8004 20.6663 11.9997 20.6663C12.199 20.6663 12.3933 20.6035 12.5555 20.4867C12.8468 20.2789 19.694 15.2918 19.6663 9.0664C19.6663 4.8024 16.2268 1.33301 11.9997 1.33301C7.77251 1.33301 4.33309 4.8024 4.33309 9.06157C4.3053 15.2918 11.1525 20.2789 11.4438 20.4867ZM11.9997 3.26636C15.1708 3.26636 17.7496 5.86768 17.7496 9.07124C17.7697 13.3613 13.5445 17.2135 11.9997 18.477C10.4558 17.2126 6.22961 13.3594 6.24974 9.0664C6.24974 5.86768 8.82858 3.26636 11.9997 3.26636Z" fill="#002E3C"/>
</svg>
