<svg width="25" height="25" viewBox="0 0 25 25" fill="none" xmlns="http://www.w3.org/2000/svg">
<g clip-path="url(#clip0_367_3298)">
<path d="M22.222 4.16699H2.77756C2.4092 4.16699 2.05594 4.31332 1.79547 4.57379C1.535 4.83426 1.38867 5.18752 1.38867 5.55588V19.4448C1.38867 19.8131 1.535 20.1664 1.79547 20.4269C2.05594 20.6873 2.4092 20.8337 2.77756 20.8337H22.222C22.5904 20.8337 22.9436 20.6873 23.2041 20.4269C23.4646 20.1664 23.6109 19.8131 23.6109 19.4448V5.55588C23.6109 5.18752 23.4646 4.83426 23.2041 4.57379C22.9436 4.31332 22.5904 4.16699 22.222 4.16699ZM21.1526 19.4448H3.93034L8.79145 14.417L7.79145 13.4517L2.77756 18.6392V6.61144L11.4095 15.2017C11.6697 15.4604 12.0217 15.6056 12.3887 15.6056C12.7556 15.6056 13.1076 15.4604 13.3678 15.2017L22.222 6.39616V18.5489L17.1109 13.4378L16.1317 14.417L21.1526 19.4448ZM3.68728 5.55588H21.097L12.3887 14.2156L3.68728 5.55588Z" fill="#002E3C"/>
</g>
<defs>
<clipPath id="clip0_367_3298">
<rect width="25" height="25" fill="white"/>
</clipPath>
</defs>
</svg>
