<svg width="23" height="17" viewBox="0 0 23 17" fill="none" xmlns="http://www.w3.org/2000/svg">
<path d="M21.222 0.166992H1.77756C1.4092 0.166992 1.05594 0.313321 0.795468 0.573788C0.535001 0.834255 0.388672 1.18752 0.388672 1.55588V15.4448C0.388672 15.8131 0.535001 16.1664 0.795468 16.4269C1.05594 16.6873 1.4092 16.8337 1.77756 16.8337H21.222C21.5904 16.8337 21.9436 16.6873 22.2041 16.4269C22.4646 16.1664 22.6109 15.8131 22.6109 15.4448V1.55588C22.6109 1.18752 22.4646 0.834255 22.2041 0.573788C21.9436 0.313321 21.5904 0.166992 21.222 0.166992ZM20.1526 15.4448H2.93034L7.79145 10.417L6.79145 9.45172L1.77756 14.6392V2.61144L10.4095 11.2017C10.6697 11.4604 11.0217 11.6056 11.3887 11.6056C11.7556 11.6056 12.1076 11.4604 12.3678 11.2017L21.222 2.39616V14.5489L16.1109 9.43783L15.1317 10.417L20.1526 15.4448ZM2.68728 1.55588H20.097L11.3887 10.2156L2.68728 1.55588Z" fill="#002E3C"/>
</svg>
