<svg width="24" height="24" viewBox="0 0 24 24" fill="none" xmlns="http://www.w3.org/2000/svg">
<path d="M22.2685 16.3304L16.7905 13.8755C16.5423 13.7691 16.2715 13.7264 16.0026 13.7511C15.7337 13.7758 15.4753 13.8672 15.2506 14.017C15.2278 14.0316 15.2061 14.0479 15.1857 14.0657L12.3226 16.5008C12.2929 16.517 12.2598 16.5261 12.226 16.5273C12.1922 16.5285 12.1586 16.5218 12.1278 16.5078C10.2875 15.6195 8.38116 13.7247 7.48944 11.91C7.47459 11.8797 7.46687 11.8463 7.46687 11.8126C7.46687 11.7788 7.47459 11.7455 7.48944 11.7152L9.9327 8.81617C9.95023 8.79472 9.96649 8.77226 9.9814 8.74892C10.1291 8.52338 10.2183 8.2646 10.241 7.99595C10.2637 7.7273 10.2191 7.45723 10.1113 7.21013L7.67381 1.74147C7.53539 1.41865 7.296 1.14943 6.99157 0.974218C6.68715 0.799006 6.33411 0.727253 5.98544 0.769729C4.47011 0.968943 3.07917 1.7131 2.07254 2.86315C1.0659 4.01319 0.512462 5.49043 0.515639 7.0188C0.515639 16.0984 7.90225 23.4851 16.9819 23.4851C18.5102 23.488 19.9873 22.9345 21.1373 21.9279C22.2872 20.9213 23.0315 19.5305 23.2309 18.0153C23.2733 17.6682 23.2025 17.3168 23.0291 17.0132C22.8557 16.7096 22.5889 16.4701 22.2685 16.3304ZM16.9819 22.0936C8.6699 22.0936 1.90715 15.3308 1.90715 7.0188C1.90327 5.82897 2.33273 4.67843 3.11527 3.78214C3.89781 2.88585 4.97991 2.30514 6.15938 2.14849H6.18605C6.23278 2.14936 6.27816 2.16433 6.31623 2.19144C6.35431 2.21855 6.3833 2.25653 6.39942 2.3004L8.84616 7.76326C8.86011 7.79363 8.86734 7.82666 8.86734 7.86008C8.86734 7.89351 8.86011 7.92654 8.84616 7.95691L6.39826 10.8629C6.38 10.8836 6.36333 10.9057 6.3484 10.929C6.19522 11.1628 6.10502 11.4322 6.08653 11.7112C6.06805 11.9901 6.1219 12.2691 6.24287 12.5211C7.27143 14.6269 9.39349 16.7327 11.5225 17.7613C11.776 17.8816 12.0563 17.9342 12.3362 17.9138C12.616 17.8935 12.8858 17.801 13.1193 17.6453C13.1413 17.6303 13.1633 17.614 13.1842 17.5966L16.0461 15.1615C16.0743 15.1463 16.1056 15.1374 16.1376 15.1354C16.1696 15.1334 16.2017 15.1383 16.2316 15.1499L21.7107 17.6048C21.7554 17.6238 21.7931 17.6565 21.8183 17.6981C21.8434 17.7397 21.8549 17.7882 21.851 17.8367C21.6952 19.0167 21.115 20.0996 20.2189 20.883C19.3228 21.6664 18.1721 22.0968 16.9819 22.0936Z" fill="#002E3C"/>
</svg>
