<svg width="25" height="25" viewBox="0 0 25 25" fill="none" xmlns="http://www.w3.org/2000/svg">
<path d="M23.2685 16.3304L17.7905 13.8755C17.5423 13.7691 17.2715 13.7264 17.0026 13.7511C16.7337 13.7758 16.4753 13.8672 16.2506 14.017C16.2278 14.0316 16.2061 14.0479 16.1857 14.0657L13.3226 16.5008C13.2929 16.517 13.2598 16.5261 13.226 16.5273C13.1922 16.5285 13.1586 16.5218 13.1278 16.5078C11.2875 15.6195 9.38116 13.7247 8.48944 11.91C8.47459 11.8797 8.46687 11.8463 8.46687 11.8126C8.46687 11.7788 8.47459 11.7455 8.48944 11.7152L10.9327 8.81617C10.9502 8.79472 10.9665 8.77226 10.9814 8.74892C11.1291 8.52338 11.2183 8.2646 11.241 7.99595C11.2637 7.7273 11.2191 7.45723 11.1113 7.21013L8.67381 1.74147C8.53539 1.41865 8.296 1.14943 7.99157 0.974218C7.68715 0.799006 7.33411 0.727253 6.98544 0.769729C5.47011 0.968943 4.07917 1.7131 3.07254 2.86315C2.0659 4.01319 1.51246 5.49043 1.51564 7.0188C1.51564 16.0984 8.90225 23.4851 17.9819 23.4851C19.5102 23.488 20.9873 22.9345 22.1373 21.9279C23.2872 20.9213 24.0315 19.5305 24.2309 18.0153C24.2733 17.6682 24.2025 17.3168 24.0291 17.0132C23.8557 16.7096 23.5889 16.4701 23.2685 16.3304ZM17.9819 22.0936C9.6699 22.0936 2.90715 15.3308 2.90715 7.0188C2.90327 5.82897 3.33273 4.67843 4.11527 3.78214C4.89781 2.88585 5.97991 2.30514 7.15938 2.14849H7.18605C7.23278 2.14936 7.27816 2.16433 7.31623 2.19144C7.35431 2.21855 7.3833 2.25653 7.39942 2.3004L9.84616 7.76326C9.86011 7.79363 9.86734 7.82666 9.86734 7.86008C9.86734 7.89351 9.86011 7.92654 9.84616 7.95691L7.39826 10.8629C7.38 10.8836 7.36333 10.9057 7.3484 10.929C7.19522 11.1628 7.10502 11.4322 7.08653 11.7112C7.06805 11.9901 7.1219 12.2691 7.24287 12.5211C8.27143 14.6269 10.3935 16.7327 12.5225 17.7613C12.776 17.8816 13.0563 17.9342 13.3362 17.9138C13.616 17.8935 13.8858 17.801 14.1193 17.6453C14.1413 17.6303 14.1633 17.614 14.1842 17.5966L17.0461 15.1615C17.0743 15.1463 17.1056 15.1374 17.1376 15.1354C17.1696 15.1334 17.2017 15.1383 17.2316 15.1499L22.7107 17.6048C22.7554 17.6238 22.7931 17.6565 22.8183 17.6981C22.8434 17.7397 22.8549 17.7882 22.851 17.8367C22.6952 19.0167 22.115 20.0996 21.2189 20.883C20.3228 21.6664 19.1721 22.0968 17.9819 22.0936Z" fill="#002E3C"/>
</svg>
