<svg xmlns="http://www.w3.org/2000/svg">

   <!-- facebook -->
	<symbol id="facebook" viewBox="0 0 52 51">
      <g>
         <path d="M51.1875 26C51.1875 12.0859 39.9141 0.8125 26 0.8125C12.0859 0.8125 0.8125 12.0859 0.8125 26C0.8125 38.5714 10.0232 48.9917 22.0645 50.8828V33.281H15.666V26H22.0645V20.4506C22.0645 14.1385 25.8223 10.6519 31.5778 10.6519C34.3342 10.6519 37.2166 11.1434 37.2166 11.1434V17.3388H34.0397C30.9116 17.3388 29.9355 19.2806 29.9355 21.2723V26H36.921L35.8038 33.281H29.9355V50.8828C41.9768 48.9917 51.1875 38.5714 51.1875 26Z" />
      </g>
   </symbol>

   <!-- instagram -->
	<symbol id="instagram" viewBox="0 0 50 50">
      <g>
         <path d="M32.8 25C32.8 27.0687 31.9783 29.0527 30.5155 30.5155C29.0527 31.9783 27.0687 32.8 25 32.8C22.9314 32.8 20.9474 31.9783 19.4846 30.5155C18.0218 29.0527 17.2 27.0687 17.2 25C17.2 24.5554 17.2468 24.1212 17.3274 23.7H14.6V34.0922C14.6 34.815 15.185 35.4 15.9078 35.4H34.0948C34.4412 35.3993 34.7732 35.2613 35.0179 35.0161C35.2626 34.7709 35.4 34.4386 35.4 34.0922V23.7H32.6726C32.7532 24.1212 32.8 24.5554 32.8 25ZM25 30.2C25.6831 30.1999 26.3594 30.0652 26.9904 29.8036C27.6214 29.5421 28.1947 29.1588 28.6775 28.6757C29.1604 28.1926 29.5434 27.6191 29.8046 26.988C30.0658 26.3569 30.2002 25.6805 30.2 24.9974C30.1999 24.3144 30.0652 23.6381 29.8036 23.0071C29.5421 22.3761 29.1588 21.8028 28.6757 21.3199C28.1926 20.8371 27.6191 20.4541 26.988 20.1929C26.3569 19.9316 25.6805 19.7973 24.9974 19.7974C23.618 19.7978 22.2951 20.3461 21.3199 21.3218C20.3448 22.2975 19.7971 23.6206 19.7974 25C19.7978 26.3795 20.3461 27.7023 21.3218 28.6775C22.2975 29.6527 23.6206 30.2004 25 30.2ZM31.24 19.54H34.3574C34.5645 19.54 34.7632 19.4579 34.9099 19.3117C35.0566 19.1655 35.1394 18.9671 35.14 18.76V15.6426C35.14 15.4351 35.0576 15.236 34.9108 15.0893C34.7641 14.9425 34.565 14.86 34.3574 14.86H31.24C31.0325 14.86 30.8334 14.9425 30.6867 15.0893C30.5399 15.236 30.4574 15.4351 30.4574 15.6426V18.76C30.46 19.189 30.811 19.54 31.24 19.54ZM25 0.0400391C18.3802 0.0400391 12.0316 2.66975 7.35065 7.35065C2.66975 12.0316 0.0400391 18.3802 0.0400391 25C0.0400391 31.6198 2.66975 37.9685 7.35065 42.6494C12.0316 47.3303 18.3802 49.96 25 49.96C28.2778 49.96 31.5235 49.3144 34.5518 48.0601C37.5801 46.8057 40.3317 44.9672 42.6494 42.6494C44.9672 40.3317 46.8057 37.5801 48.0601 34.5518C49.3144 31.5235 49.96 28.2778 49.96 25C49.96 21.7222 49.3144 18.4765 48.0601 15.4483C46.8057 12.42 44.9672 9.6684 42.6494 7.35065C40.3317 5.0329 37.5801 3.19436 34.5518 1.94001C31.5235 0.685649 28.2778 0.0400391 25 0.0400391ZM38 35.1114C38 36.7 36.7 38 35.1114 38H14.8886C13.3 38 12 36.7 12 35.1114V14.8886C12 13.3 13.3 12 14.8886 12H35.1114C36.7 12 38 13.3 38 14.8886V35.1114Z" />
      </g>
   </symbol>

   <!-- youtube -->
	<symbol id="youtube" viewBox="0 0 50 50">
      <g>
         <path d="M29.1678 24.5658L23.3282 21.841C22.8186 21.6044 22.4 21.8696 22.4 22.4338V27.5662C22.4 28.1304 22.8186 28.3956 23.3282 28.159L29.1652 25.4342C29.6774 25.195 29.6774 24.805 29.1678 24.5658ZM25 0.0400391C11.2148 0.0400391 0.0400391 11.2148 0.0400391 25C0.0400391 38.7852 11.2148 49.96 25 49.96C38.7852 49.96 49.96 38.7852 49.96 25C49.96 11.2148 38.7852 0.0400391 25 0.0400391ZM25 35.14C12.2236 35.14 12 33.9882 12 25C12 16.0118 12.2236 14.86 25 14.86C37.7764 14.86 38 16.0118 38 25C38 33.9882 37.7764 35.14 25 35.14Z" />
      </g>
   </symbol>

   <!-- arrow-to-right -->
	<symbol id="arrow-to-right" viewBox="0 0 42 8">
      <g>
         <path d="M41.3532 4.35355C41.5485 4.15829 41.5485 3.84171 41.3532 3.64645L38.1713 0.464466C37.976 0.269204 37.6594 0.269204 37.4642 0.464466C37.2689 0.659728 37.2689 0.976311 37.4642 1.17157L40.2926 4L37.4642 6.82843C37.2689 7.02369 37.2689 7.34027 37.4642 7.53553C37.6594 7.7308 37.976 7.7308 38.1713 7.53553L41.3532 4.35355ZM0.227539 4.5H40.9997V3.5H0.227539V4.5Z" />
      </g>
   </symbol>

   <!--  -->
	<symbol id="" viewBox="">
      <g>
         
      </g>
   </symbol>

   <!--  -->
	<symbol id="" viewBox="">
      <g>
         
      </g>
   </symbol>

</svg>